<?xml version="1.0" encoding="utf-8"?>
<!-- Generator: Adobe Illustrator 17.1.0, SVG Export Plug-In . SVG Version: 6.00 Build 0)  -->
<!DOCTYPE svg PUBLIC "-//W3C//DTD SVG 1.1//EN" "http://www.w3.org/Graphics/SVG/1.1/DTD/svg11.dtd" [
	<!ENTITY ns_extend "http://ns.adobe.com/Extensibility/1.0/">
	<!ENTITY ns_ai "http://ns.adobe.com/AdobeIllustrator/10.0/">
	<!ENTITY ns_graphs "http://ns.adobe.com/Graphs/1.0/">
	<!ENTITY ns_vars "http://ns.adobe.com/Variables/1.0/">
	<!ENTITY ns_imrep "http://ns.adobe.com/ImageReplacement/1.0/">
	<!ENTITY ns_sfw "http://ns.adobe.com/SaveForWeb/1.0/">
	<!ENTITY ns_custom "http://ns.adobe.com/GenericCustomNamespace/1.0/">
	<!ENTITY ns_adobe_xpath "http://ns.adobe.com/XPath/1.0/">
]>
<svg version="1.1" id="Слой_1" xmlns:x="&ns_extend;" xmlns:i="&ns_ai;" xmlns:graph="&ns_graphs;"
	 xmlns="http://www.w3.org/2000/svg" xmlns:xlink="http://www.w3.org/1999/xlink" x="0px" y="0px" viewBox="0 183.2 960 193.6"
	 enable-background="new 0 183.2 960 193.6" xml:space="preserve">
<metadata>
	<sfw  xmlns="&ns_sfw;">
		<slices></slices>
		<sliceSourceBounds  width="960" height="193.6" bottomLeftOrigin="true" x="0" y="183.2"></sliceSourceBounds>
	</sfw>
</metadata>
<g>
	<path fill="#303030" d="M133.3,334.3l14.3,35.2l-8.9,3.5l-11.7-29.2H20.3L8.6,373L0,369.5l14.3-35.2H133.3z M75.2,187l38.4,97.7
		H34.3L72.7,187H75.2z M48.2,275.2h51.1l-25.4-67L48.2,275.2z"/>
	<path fill="#303030" d="M321.5,365.7l-6,7.3L189.1,269.5V373h-9.5V249.2L321.5,365.7z M188.5,194.3l6-7.3l126,103.5V187h9.5v123.8
		L188.5,194.3z"/>
	<path fill="#303030" d="M533.8,249.2V373h-9.5V269.5L398.3,373l-6-7.3L533.8,249.2z M383.4,310.8V187h9.5v103.5l126-103.5l6,7.3
		L383.4,310.8z"/>
	<path fill="#303030" d="M769.9,280c0,53.6-40.9,96.8-97.4,96.8S575,333.6,575,280c-0.3-53.6,40.6-96.8,97.1-96.8
		C729,183.2,769.9,226.4,769.9,280z M760.4,280c0-48.2-36.8-87.6-87.9-87.6c-51.4,0-87.9,39.7-87.9,87.6s36.8,87.6,87.9,87.6
		S760.4,328.2,760.4,280z"/>
	<path fill="#303030" d="M951.4,365.7l-6,7.3l-126-103.5V373h-9.5V249.2L951.4,365.7z M818.5,194.3l6-7.3l126,103.5V187h9.5v123.8
		L818.5,194.3z"/>
</g>
</svg>
