<?xml version="1.0" encoding="utf-8"?>
<!-- Generator: Adobe Illustrator 17.1.0, SVG Export Plug-In . SVG Version: 6.00 Build 0)  -->
<!DOCTYPE svg PUBLIC "-//W3C//DTD SVG 1.1//EN" "http://www.w3.org/Graphics/SVG/1.1/DTD/svg11.dtd" [
	<!ENTITY ns_extend "http://ns.adobe.com/Extensibility/1.0/">
	<!ENTITY ns_ai "http://ns.adobe.com/AdobeIllustrator/10.0/">
	<!ENTITY ns_graphs "http://ns.adobe.com/Graphs/1.0/">
	<!ENTITY ns_vars "http://ns.adobe.com/Variables/1.0/">
	<!ENTITY ns_imrep "http://ns.adobe.com/ImageReplacement/1.0/">
	<!ENTITY ns_sfw "http://ns.adobe.com/SaveForWeb/1.0/">
	<!ENTITY ns_custom "http://ns.adobe.com/GenericCustomNamespace/1.0/">
	<!ENTITY ns_adobe_xpath "http://ns.adobe.com/XPath/1.0/">
]>
<svg version="1.1" id="Z_xA0_Image" xmlns:x="&ns_extend;" xmlns:i="&ns_ai;" xmlns:graph="&ns_graphs;"
	 xmlns="http://www.w3.org/2000/svg" xmlns:xlink="http://www.w3.org/1999/xlink" x="0px" y="0px" viewBox="0 0 566.9 283.5"
	 enable-background="new 0 0 566.9 283.5" xml:space="preserve">
<metadata>
	<sfw  xmlns="&ns_sfw;">
		<slices></slices>
		<sliceSourceBounds  width="526.3" height="283.5" bottomLeftOrigin="true" x="34.9" y="279.8"></sliceSourceBounds>
	</sfw>
</metadata>
<g>
	<g>
		<path fill="#44E340" d="M200.6,280.6l0.4-1.1l-1-0.4l0.5-3.1l-1.1-0.4l-6-8l0.6-1.1l-2.7-1.3l2.1-3.1l-2.3-0.3l0.9-1.5l-0.9-0.4
			l1.8-2.5l0-1.3c33.1-48.6,106.9-133.8,144.3-173.7l-0.7-0.8c-13.2,8.1-43.5,28.6-74.4,54.1c-3.7,3-7.3,2.1-8.8,1
			c-2.2-1.6-11-8.5-13.7-10.6c-1.5-1.2-1.5-3.5-0.1-4.7c17.6-15.1,101.3-80.9,164.9-119.7c0.6-0.3,1.4-0.3,2.1-0.5
			c0.5-0.1,0.9-0.3,1.3-0.6c0.7-0.3,1.3-0.5,1.5,0.4c1.2-0.3,2.3-0.5,3.4-0.8c0.5-0.1,0.8,0,0.8,0.5c0.1,0.5,0.3,1,0.5,1.6
			c0.7-0.2,1.2-0.4,1.8-0.6c0.2,0.4,0.3,0.7,0.5,1.1c0.5-0.1,0.9-0.2,1.4-0.4c0.1,0.1,0.1,0.2,0.2,0.2l1.5,7.5l1.8,23.8l-1,3.6
			l-1.3,2.2c-46,46.4-101.5,112.2-113.7,126.8c-1.4,1.7-3.4,3.6-3.4,3.6l0.8,0.9c39.2-25.1,139.2-80.7,228.4-96.9
			c1.6,0,9.6-0.7,9.6-0.7s6.1,1.2,6.2,1.1c0,0.1,0,0.3,0,0.3l-1.9,0.6l2.2,0.1c0,0,0,0.2,0,0.3c-0.6,0.5-1.2,1-1.9,1.5
			c0.5,0.1,1.1,0.1,1.6,0.2c0,0.1,0,0.2,0,0.2l-1.8,0.4l0,0.4l1,0l0,0.2c-0.1,0-0.9,0.6-0.9,0.6l0,0.3l1.3,0.5l-0.6,1l-0.1,1
			l0.8,0.1l0,0.3l-1.5,1l1.5,0.5l0,0.3l-0.4,1.8l-2.9,2.4l2.5-0.4l0,0.2l-2.8,3c-73.8,15.6-224.3,86.7-331.6,190.2l-1.1,1.5
			l-3.8,0.8l-2-0.9l-2.1,0.1l0.1-0.9l-0.8-1.1L200.6,280.6z"/>
	</g>
	<g>
		<g>
			<path d="M20.8,195.9v-46.2h33.9V160h-22v7.2h21.5v10.4H32.7v18.2H20.8z"/>
			<path d="M93.4,172.8c0-14.1,10.6-23.9,24.7-23.9c14.1,0,24.7,9.8,24.7,23.9c0,14.1-10.5,23.9-24.7,23.9
				C104,196.7,93.4,186.8,93.4,172.8z M130.7,172.8c0-7.6-4.9-13.4-12.5-13.4c-7.7,0-12.6,5.8-12.6,13.4c0,7.5,4.9,13.4,12.6,13.4
				C125.8,186.2,130.7,180.3,130.7,172.8z"/>
			<path d="M209.2,195.9l-7.8-15.5h-6.1v15.5h-11.9v-46.2h23.1c10.3,0,16.1,6.8,16.1,15.4c0,8-4.9,12.3-9.2,13.9l9.4,17H209.2z
				 M210.5,165c0-3.1-2.6-4.9-5.7-4.9h-9.4v9.9h9.4C207.9,169.9,210.5,168.2,210.5,165z"/>
		</g>
	</g>
	<g>
		<g>
			<g>
				<path d="M383,195.9l-2.3-6.7h-18.2l-2.3,6.7h-13.5l17.4-46.2h15l17.5,46.2H383z M371.6,161.4l-5.9,17.4h11.8L371.6,161.4z"/>
			</g>
		</g>
	</g>
</g>
</svg>
