<?xml version="1.0" encoding="utf-8"?>
<!-- Generator: Adobe Illustrator 17.1.0, SVG Export Plug-In . SVG Version: 6.00 Build 0)  -->
<!DOCTYPE svg PUBLIC "-//W3C//DTD SVG 1.1//EN" "http://www.w3.org/Graphics/SVG/1.1/DTD/svg11.dtd" [
	<!ENTITY ns_extend "http://ns.adobe.com/Extensibility/1.0/">
	<!ENTITY ns_ai "http://ns.adobe.com/AdobeIllustrator/10.0/">
	<!ENTITY ns_graphs "http://ns.adobe.com/Graphs/1.0/">
	<!ENTITY ns_vars "http://ns.adobe.com/Variables/1.0/">
	<!ENTITY ns_imrep "http://ns.adobe.com/ImageReplacement/1.0/">
	<!ENTITY ns_sfw "http://ns.adobe.com/SaveForWeb/1.0/">
	<!ENTITY ns_custom "http://ns.adobe.com/GenericCustomNamespace/1.0/">
	<!ENTITY ns_adobe_xpath "http://ns.adobe.com/XPath/1.0/">
]>
<svg version="1.1" id="Слой_1" xmlns:x="&ns_extend;" xmlns:i="&ns_ai;" xmlns:graph="&ns_graphs;"
	 xmlns="http://www.w3.org/2000/svg" xmlns:xlink="http://www.w3.org/1999/xlink" x="0px" y="0px" viewBox="0 0 121.5 27.5"
	 enable-background="new 0 0 121.5 27.5" xml:space="preserve">
<metadata>
	<sfw  xmlns="&ns_sfw;">
		<slices></slices>
		<sliceSourceBounds  width="120" height="26.5" bottomLeftOrigin="true" x="31.6" y="-156.3"></sliceSourceBounds>
	</sfw>
</metadata>
<g>
	<g>
		<path fill="#29285E" d="M0.6,12.6h33.5V7.7H0.6V12.6z M0.6,17c0,5.3,4.5,10.4,10,10.4h23.5V16.9L0.6,17L0.6,17z M59.1,7.4H39.5
			v19.9h5.7V12.4H50v14.9h5.7V12.4h2.9c1.2,0,1.9,0.8,1.9,2v12.9h5.7V13.7C66.3,9.4,63.3,7.4,59.1,7.4z M81.2,7.4h-4.1V0.8h-6v26.5
			h10c4.4,0,7.5-1.9,7.5-6.3v-7.3C88.7,9.4,85.6,7.4,81.2,7.4z M82.8,20.4c0,1.2-0.7,2-2.1,2h-3.6v-10h3.6c1.3,0,2.1,0.8,2.1,2.1
			V20.4z M93,5.2h5.9V0.8H93V5.2z M93,27.3h5.9V7.4H93V27.3z M103.8,27.3h5.9V0.8h-5.9V27.3z M114.7,0.8L114.7,0.8l-0.1,26.5h5.9
			V6.5C120.6,3.3,118,0.8,114.7,0.8z"/>
	</g>
</g>
</svg>
