<?xml version="1.0" encoding="utf-8"?>
<!-- Generator: Adobe Illustrator 17.1.0, SVG Export Plug-In . SVG Version: 6.00 Build 0)  -->
<!DOCTYPE svg PUBLIC "-//W3C//DTD SVG 1.1//EN" "http://www.w3.org/Graphics/SVG/1.1/DTD/svg11.dtd" [
	<!ENTITY ns_extend "http://ns.adobe.com/Extensibility/1.0/">
	<!ENTITY ns_ai "http://ns.adobe.com/AdobeIllustrator/10.0/">
	<!ENTITY ns_graphs "http://ns.adobe.com/Graphs/1.0/">
	<!ENTITY ns_vars "http://ns.adobe.com/Variables/1.0/">
	<!ENTITY ns_imrep "http://ns.adobe.com/ImageReplacement/1.0/">
	<!ENTITY ns_sfw "http://ns.adobe.com/SaveForWeb/1.0/">
	<!ENTITY ns_custom "http://ns.adobe.com/GenericCustomNamespace/1.0/">
	<!ENTITY ns_adobe_xpath "http://ns.adobe.com/XPath/1.0/">
]>
<svg version="1.1" id="Слой_1" xmlns:x="&ns_extend;" xmlns:i="&ns_ai;" xmlns:graph="&ns_graphs;"
	 xmlns="http://www.w3.org/2000/svg" xmlns:xlink="http://www.w3.org/1999/xlink" x="0px" y="0px" viewBox="0 0 88 25"
	 enable-background="new 0 0 88 25" xml:space="preserve">
<metadata>
	<sfw  xmlns="&ns_sfw;">
		<slices></slices>
		<sliceSourceBounds  width="83.8" height="25" bottomLeftOrigin="true" x="-0.1" y="0.3"></sliceSourceBounds>
	</sfw>
</metadata>
<g>
	<g>
		<g>
			<path fill="#3491D4" d="M2.7,14v4h-2.8V6.3h4.7c0.9,0,1.7,0.2,2.4,0.5s1.2,0.8,1.6,1.4c0.4,0.6,0.6,1.3,0.6,2.1
				c0,1.1-0.4,2.1-1.2,2.7c-0.8,0.7-1.9,1-3.4,1H2.7z M2.7,11.9h1.9c0.5,0,1-0.1,1.3-0.4c0.3-0.3,0.4-0.7,0.4-1.2
				c0-0.5-0.1-1-0.4-1.3C5.5,8.6,5.1,8.5,4.6,8.5H2.7V11.9z"/>
			<path fill="#3491D4" d="M15.9,15.8H12L11.3,18h-3l4.3-11.7h2.7L19.6,18h-3L15.9,15.8z M12.7,13.6h2.5l-1.3-4.1L12.7,13.6z"/>
			<polygon fill="#3491D4" points="57.2,11.4 59.3,6.3 62.4,6.3 58.6,13.8 58.6,18 55.7,18 55.7,13.8 51.9,6.3 55,6.3 			"/>
			<path fill="#3491D4" d="M73,12.4c0,1.1-0.2,2.2-0.6,3c-0.4,0.9-1,1.6-1.8,2c-0.8,0.5-1.7,0.7-2.7,0.7c-1,0-1.9-0.2-2.7-0.7
				c-0.8-0.5-1.4-1.1-1.8-2c-0.4-0.9-0.7-1.8-0.7-2.9v-0.7c0-1.1,0.2-2.2,0.6-3c0.4-0.9,1-1.6,1.8-2c0.8-0.5,1.7-0.7,2.7-0.7
				c1,0,1.9,0.2,2.7,0.7c0.8,0.5,1.4,1.1,1.8,2c0.4,0.9,0.7,1.9,0.7,3V12.4z M70.1,11.9c0-1.2-0.2-2.1-0.6-2.7
				c-0.4-0.6-0.9-0.9-1.7-0.9c-1.4,0-2.2,1.1-2.3,3.2l0,0.9c0,1.1,0.2,2,0.6,2.7c0.4,0.6,0.9,0.9,1.7,0.9c0.7,0,1.3-0.3,1.7-0.9
				c0.4-0.6,0.6-1.5,0.6-2.6V11.9z"/>
			<path fill="#3491D4" d="M83.6,6.3V14c0,0.9-0.2,1.6-0.6,2.3c-0.4,0.6-0.9,1.1-1.6,1.5C80.8,18,80,18.2,79,18.2
				c-1.4,0-2.6-0.4-3.4-1.1c-0.8-0.7-1.2-1.8-1.3-3V6.3h2.9v7.8c0,1.3,0.6,1.9,1.8,1.9c0.6,0,1-0.2,1.3-0.5c0.3-0.3,0.5-0.8,0.5-1.6
				V6.3H83.6z"/>
			<polygon fill="#3491D4" points="23.6,11.4 25.7,6.3 28.8,6.3 25,13.8 25,18 22.1,18 22.1,13.8 18.3,6.3 21.4,6.3 			"/>
			<path fill="#3491D4" d="M51.6,9l-8-8c-1.8-1.8-4.6-1.8-6.4,0l-8,8c-1.8,1.8-1.8,4.6,0,6.4l8,8c1.8,1.8,4.6,1.8,6.4,0l8-8
				C53.3,13.7,53.3,10.8,51.6,9 M45.3,19.1h-9.7V17l4.5-4.7c1.1-1.2,1.7-2.2,1.7-3c0-0.6-0.1-1-0.4-1.4c-0.3-0.3-0.6-0.5-1.1-0.5
				c-0.5,0-0.9,0.2-1.2,0.6c-0.3,0.4-0.5,0.9-0.5,1.6h-3.2c0-0.8,0.2-1.6,0.6-2.4c0.4-0.7,1-1.3,1.8-1.7c0.8-0.4,1.6-0.6,2.5-0.6
				c1.5,0,2.7,0.3,3.5,1c0.8,0.7,1.2,1.7,1.2,3c0,0.5-0.1,1.1-0.3,1.6c-0.2,0.5-0.5,1.1-0.9,1.6c-0.4,0.6-1.1,1.3-2.1,2.3l-1.8,2
				h5.5V19.1z"/>
			<path fill="#2C83B5" d="M51.6,9l-8-8c0,0-2.7-1.6-3.2,0.8l0,3.2c1.4,0,2.5,0.4,3.3,1c0.8,0.7,1.2,1.7,1.2,3
				c0,0.5-0.1,1.1-0.3,1.6c-0.2,0.5-0.5,1.1-0.9,1.6c-0.4,0.6-1.1,1.3-2.1,2.3l-1.2,1.4v0.7h4.9v2.5h-4.9v2.6c0,3.7-3.2,1.7-3.2,1.7
				c1.3,1.4,4.3,2.1,6.4,0l8-8C53.3,13.7,53.3,10.8,51.6,9"/>
			<polygon fill="#3491D4" points="46.1,17.7 45.3,16.8 45.3,19.1 38.7,19.1 39.9,20.1 46.1,20.1 			"/>
			<path fill="#2A7CAB" d="M40.2,7.5c0.3,0.3,0.4,0.7,0.4,1.3c0,0.7-0.6,1.7-1.8,3L36.3,15c-0.4,0.5-0.6,1.1-0.6,1.8v0.2l4.4-4.6
				c1.1-1.2,1.7-2.2,1.7-3c0-0.6-0.1-1-0.4-1.4C41,7.7,40.7,7.5,40.2,7.5"/>
			<path fill="#2A7CAB" d="M43.7,4.6c-0.9-0.7-2.1-1-3.7-1c-1,0-1.9,0.2-2.7,0.6c-0.8,0.4-1.5,1-1.9,1.7c-0.4,0.7-0.6,1.6-0.6,2.5
				v0.7c0,0.3,0.3,0.6,0.6,0.6c0-0.8,0.2-1.6,0.6-2.4c0.4-0.7,1-1.3,1.8-1.7c0.8-0.4,1.6-0.6,2.5-0.6c1.5,0,2.7,0.3,3.5,1
				c0.8,0.7,1.2,1.7,1.2,2.9c0.4-0.1,1,0.3,1-0.2C46,6.5,45,5.6,43.7,4.6"/>
			<path fill="#399FE8" d="M43.7,6.1c0.8,0.7,1.2,1.7,1.2,3c0,0.5-0.1,1.1-0.3,1.6c-0.2,0.5-0.5,1.1-0.9,1.6
				c-0.4,0.6-1.1,1.3-2.1,2.3l-1.8,2h1.5l1.3-1.6c1-1,1.6-1.7,2.1-2.3c0.4-0.6,0.7-1.1,0.9-1.6c0.2-0.5,0.3-1,0.3-1.6
				c0-1.3-0.6-2.3-1.2-3c-0.7-0.7-2-1.2-3.4-1.4C42.4,5.3,43.1,5.6,43.7,6.1"/>
		</g>
	</g>
</g>
</svg>
